<svg width="105" height="98" viewBox="0 0 105 98" fill="none" xmlns="http://www.w3.org/2000/svg">
<g clip-path="url(#clip0_101_2)">
<ellipse cx="52" cy="49" rx="46" ry="45" stroke="black" stroke-width="4"/>
<path d="M78.8102 21.6235C78.5188 22.8357 77.9964 24.0677 77.243 25.3196C76.4895 26.5715 75.2966 28.3966 73.6643 30.7948C72.4343 32.4602 70.7934 34.8941 68.7415 38.0965C63.3933 46.5405 58.5624 56.1269 54.2488 66.8559C53.5893 68.6584 52.8955 70.6034 52.1674 72.6911C51.4393 74.7787 50.8954 76.5713 50.5354 78.0686C50.3298 78.9242 50.3822 79.8042 50.6928 80.7085C51.0747 81.6299 51.24 82.1976 51.1886 82.4115C51.0857 82.8393 50.4337 83.5123 49.2326 84.4303C48.0486 85.277 46.7747 86.0268 45.4111 86.6795C44.0475 87.3322 43.0091 87.5728 42.2961 87.4015C40.87 87.0587 40.3027 86.2812 40.5941 85.0691C40.9711 83.5004 43.1478 78.367 47.1241 69.6687C51.1175 60.8992 54.3116 54.2001 56.7063 49.5716C54.5323 51.0855 52.6394 52.2143 51.0276 52.9582C49.4158 53.7021 47.6116 53.8341 45.6151 53.3543C42.763 52.6687 40.4152 49.7286 38.5715 44.5338C36.745 39.2678 35.1327 33.1105 33.7346 26.0619L33.1792 23.6657C32.678 21.358 32.1082 19.3355 31.4699 17.5982C30.8316 15.8609 30.5381 14.8853 30.5896 14.6714C30.6753 14.3149 30.9848 14.1253 31.5182 14.1027C32.14 14.0259 32.7718 14.0646 33.4135 14.2189C35.7665 14.7844 37.3301 17.536 38.1042 22.4737C39.1972 29.2227 40.4516 35.1432 41.8674 40.2351C43.3717 45.2728 45.4786 48.1173 48.1881 48.7686C49.9707 49.1971 51.685 48.968 53.3311 48.0815C54.9772 47.195 56.4252 46.0346 57.675 44.6003C58.8192 43.2915 60.2603 41.3752 61.9983 38.8515C63.8075 36.3449 65.2116 34.2689 66.2105 32.6235C70.1375 26.3269 72.3364 22.6695 72.8074 21.6514C73.5239 20.2397 74.0932 19.283 74.5155 18.7811C74.955 18.2079 75.4956 17.9985 76.1373 18.1527C76.9216 18.3412 77.6018 18.8064 78.1777 19.5482C78.7707 20.2187 78.9816 20.9105 78.8102 21.6235Z" fill="black"/>
</g>
<defs>
<clipPath id="clip0_101_2">
<rect width="105" height="98" fill="white"/>
</clipPath>
</defs>
</svg>
